<svg viewBox="0 0 83.5366 74" fill="none" xmlns="http://www.w3.org/2000/svg" xmlns:xlink="http://www.w3.org/1999/xlink" x="0" y="0"><defs><clipPath id="clip1_1_2">
<rect width="83.5366" height="74" fill="white" transform="translate(0.00029999999992469384, 0)"/>
</clipPath></defs><g id="Layer_1" clip-path="url(#clip1_1_2)">
<path id="Vector_17" d="M32.7853,33.94c0.071,-4.95 4.127,-8.91 9.076,-8.86c4.948,0.05 8.926,4.09 8.901,9.03c-0.026,4.95 -4.044,8.95 -8.992,8.95c-4.995,-0.05 -9.011,-4.13 -8.984,-9.12z" stroke="black" stroke-width="7.16028" stroke-linecap="round" stroke-linejoin="round"/>
<path id="Vector_18" d="M1.4943,21.91c-1.606,1.15 -1.976,3.39 -0.823,4.99c1.152,1.61 3.389,1.98 4.996,0.83zM26.2213,8.59l2.086,2.91h0.004zM57.3103,8.59l-2.09,2.91h0.005zM77.8713,27.73c1.606,1.15 3.844,0.78 4.996,-0.83c1.151,-1.6 0.783,-3.84 -0.825,-4.99zM16.1453,33.94c0,-1.98 -1.604,-3.58 -3.58,-3.58c-1.977,0 -3.581,1.6 -3.581,3.58zM12.5653,52.18l3.58,0.03v-0.03zM30.5373,70.42l-0.027,3.58h0.027zM53.0013,70.42v3.58h0.027zM70.9733,52.18h-3.58v0.03zM74.5533,33.94c0,-1.98 -1.603,-3.58 -3.58,-3.58c-1.977,0 -3.58,1.6 -3.58,3.58zM5.6653,27.73l22.642,-16.23l-4.173,-5.82l-22.64,16.23l4.173,5.82zM28.3113,11.5c8.039,-5.78 18.872,-5.78 26.911,0l4.18,-5.82c-10.536,-7.57 -24.733,-7.57 -35.269,0l4.18,5.82zM55.2253,11.5l22.646,16.23l4.171,-5.82l-22.646,-16.23l-4.171,5.82zM8.9843,33.94v18.24h7.161v-18.24zM8.9843,52.15c-0.043,5.76 2.202,11.29 6.239,15.39l5.1,-5.03c-2.705,-2.75 -4.207,-6.45 -4.178,-10.3l-7.161,-0.06zM15.2233,67.54c4.036,4.09 9.536,6.42 15.287,6.46l0.052,-7.16c-3.853,-0.03 -7.536,-1.59 -10.239,-4.33zM30.5373,74h22.464v-7.16h-22.464zM53.0263,74c5.752,-0.04 11.251,-2.37 15.287,-6.47l-5.1,-5.02c-2.704,2.74 -6.388,4.3 -10.241,4.33l0.053,7.16zM68.3153,67.54c4.036,-4.1 6.281,-9.63 6.238,-15.39l-7.16,0.06c0.028,3.85 -1.474,7.56 -4.178,10.3l5.1,5.03zM74.5533,52.18v-18.24h-7.16v18.24z" fill="black"/>
</g></svg>