<svg viewBox="0 0 74.7902 78.4392" fill="none" xmlns="http://www.w3.org/2000/svg" xmlns:xlink="http://www.w3.org/1999/xlink" x="0" y="0"><defs><clipPath id="clip3_1_2">
<rect width="74.7902" height="78.4392" fill="white" transform="translate(0, -0.0004999999991923687)"/>
</clipPath></defs><g id="Layer_1_3" clip-path="url(#clip3_1_2)">
<path id="Vector_20" d="M58.118,24.7695l1.691,-1.69c2.801,-2.8 7.343,-2.8 10.145,0c2.801,2.8 2.801,7.34 0,10.14l-1.691,1.7M58.118,24.7695c0,0 0.211,3.59 3.382,6.76c3.17,3.17 6.763,3.39 6.763,3.39M58.118,24.7695l-15.544,15.54c-1.053,1.06 -1.58,1.58 -2.033,2.16c-0.534,0.69 -0.991,1.43 -1.365,2.21c-0.316,0.67 -0.552,1.37 -1.023,2.79l-1.507,4.52l-0.488,1.46M68.263,34.9195l-15.544,15.54c-1.053,1.05 -1.58,1.58 -2.16,2.03c-0.685,0.54 -1.426,0.99 -2.21,1.37c-0.664,0.31 -1.37,0.55 -2.783,1.02l-4.522,1.51l-1.464,0.49M36.158,53.4495l-0.488,1.47c-0.232,0.69 -0.052,1.46 0.467,1.98c0.519,0.51 1.285,0.7 1.98,0.46l1.463,-0.48M36.158,53.4495l3.422,3.43" stroke="black" stroke-width="5.47248" stroke-miterlimit="133.33"/>
<path id="Vector_21" d="M20.978,42.8695h9.121" stroke="black" stroke-width="5.47248" stroke-miterlimit="133.33" stroke-linecap="round"/>
<path id="Vector_22" d="M20.978,28.2695h23.715" stroke="black" stroke-width="5.47248" stroke-miterlimit="133.33" stroke-linecap="round"/>
<path id="Vector_23" d="M20.978,57.4595h5.473" stroke="black" stroke-width="5.47248" stroke-miterlimit="133.33" stroke-linecap="round"/>
<path id="Vector_24" d="M2.736,46.5195v-14.6c0,-13.75 0,-20.63 4.274,-24.91c4.274,-4.27 11.154,-4.27 24.912,-4.27h7.297c13.759,0 20.638,0 24.912,4.27M68.406,46.5195c0,13.76 0,20.63 -4.274,24.91c3.441,-3.44 4.112,-8.57 4.242,-17.62M7.01,71.4295c4.274,4.27 11.154,4.27 24.912,4.27h7.297c13.759,0 20.638,0 24.912,-4.27" stroke="black" stroke-width="5.47248" stroke-miterlimit="133.33" stroke-linecap="round"/>
</g></svg>