<svg viewBox="0 0 85 63.4871" fill="none" xmlns="http://www.w3.org/2000/svg" xmlns:xlink="http://www.w3.org/1999/xlink" x="0" y="0"><defs><clipPath id="clip4_1_2">
<rect width="85" height="63.4871" fill="white" transform="translate(0, 0)"/>
</clipPath></defs><g id="Layer_1_4" clip-path="url(#clip4_1_2)">
<path id="Vector_26" d="M52.437,60.09v-8.9c0,-3.36 -2.725,-6.09 -6.084,-6.09h-36.876c-3.36,0 -6.081,-2.72 -6.081,-6.08v-29.54c0,-3.36 2.719,-6.08 6.078,-6.09h66.049c3.36,0 6.081,2.73 6.081,6.08v29.55c0,3.36 -2.723,6.08 -6.081,6.08h-4.124c-1.506,0 -2.957,0.56 -4.074,1.57l-14.886,13.42z" stroke="#161616" stroke-width="6.7907" stroke-linecap="round" stroke-linejoin="round"/>
<path id="Vector_27" d="M25.227,28.7c2.88,0 5.215,-2.34 5.215,-5.22c0,-2.88 -2.335,-5.21 -5.215,-5.21c-2.881,0 -5.216,2.33 -5.216,5.21c0,2.88 2.335,5.22 5.216,5.22z" fill="#161616"/>
<path id="Vector_28" d="M47.648,24.32c0.462,-2.84 -1.469,-5.52 -4.312,-5.98c-2.843,-0.47 -5.522,1.47 -5.984,4.31c-0.461,2.84 1.469,5.52 4.313,5.98c2.843,0.46 5.522,-1.47 5.983,-4.31z" fill="#161616"/>
<path id="Vector_29" d="M59.771,28.7c2.881,0 5.215,-2.34 5.215,-5.22c0,-2.88 -2.334,-5.21 -5.215,-5.21c-2.88,0 -5.215,2.33 -5.215,5.21c0,2.88 2.335,5.22 5.215,5.22z" fill="#161616"/>
</g></svg>