<svg viewBox="0 0 32.5 32.5" fill="none" xmlns="http://www.w3.org/2000/svg" xmlns:xlink="http://www.w3.org/1999/xlink" x="0" y="0"><path id="Vector_4" d="M16.25,0c-2.13,0 -4.25,0.42 -6.22,1.24c-1.97,0.81 -3.76,2.01 -5.27,3.52c-3.05,3.05 -4.76,7.18 -4.76,11.49c0,4.31 1.71,8.44 4.76,11.49c1.51,1.51 3.3,2.71 5.27,3.52c1.97,0.82 4.09,1.24 6.22,1.24c4.31,0 8.44,-1.71 11.49,-4.76c3.05,-3.05 4.76,-7.18 4.76,-11.49c0,-2.13 -0.42,-4.25 -1.24,-6.22c-0.81,-1.97 -2.01,-3.76 -3.52,-5.27c-1.51,-1.51 -3.3,-2.71 -5.27,-3.52c-1.97,-0.82 -4.09,-1.24 -6.22,-1.24zM23.08,23.08l-8.45,-5.21v-9.74h2.43v8.44l7.31,4.39z" fill="black"/></svg>