<svg viewBox="0 0 29.7513 29.75" fill="none" xmlns="http://www.w3.org/2000/svg" xmlns:xlink="http://www.w3.org/1999/xlink" x="0" y="0"><path id="Vector_2" d="M14.875,9.924c-2.74,0 -4.95,2.231 -4.95,4.951c0,2.72 2.23,4.951 4.95,4.951c2.72,0 4.95,-2.231 4.95,-4.951c0,-2.72 -2.23,-4.951 -4.95,-4.951zM29.755,14.875c0,-2.061 0,-4.08 -0.11,-6.141c-0.11,-2.38 -0.66,-4.505 -2.4,-6.226c-1.75,-1.743 -3.85,-2.296 -6.23,-2.402c-2.06,-0.106 -4.08,-0.106 -6.14,-0.106c-2.06,0 -4.08,0 -6.14,0.106c-2.38,0.106 -4.51,0.659 -6.23,2.402c-1.74,1.742 -2.29,3.846 -2.4,6.226c-0.11,2.061 -0.11,4.08 -0.11,6.141c0,2.061 0,4.08 0.11,6.141c0.11,2.38 0.66,4.505 2.4,6.227c1.75,1.742 3.85,2.295 6.23,2.401c2.06,0.106 4.08,0.106 6.14,0.106c2.06,0 4.08,0 6.14,-0.106c2.38,-0.106 4.51,-0.659 6.23,-2.401c1.74,-1.743 2.29,-3.847 2.4,-6.227c0.13,-2.04 0.11,-4.08 0.11,-6.141zM14.875,22.504c-4.23,0 -7.63,-3.4 -7.63,-7.629c0,-4.229 3.4,-7.629 7.63,-7.629c4.23,0 7.63,3.4 7.63,7.629c0,4.229 -3.4,7.629 -7.63,7.629zM22.825,8.712c-0.98,0 -1.79,-0.786 -1.79,-1.784c0,-0.999 0.79,-1.786 1.79,-1.786c1,0 1.78,0.787 1.78,1.786c0.01,0.232 -0.03,0.464 -0.12,0.679c-0.09,0.216 -0.22,0.411 -0.39,0.574c-0.16,0.167 -0.36,0.298 -0.57,0.385c-0.22,0.088 -0.45,0.131 -0.68,0.125z" fill="black"/></svg>