<svg viewBox="0 0 26.25 37.5" fill="none" xmlns="http://www.w3.org/2000/svg" xmlns:xlink="http://www.w3.org/1999/xlink" x="0" y="0"><path id="Vector_3" d="M13.125,17.81c-1.24,0 -2.44,-0.49 -3.31,-1.37c-0.88,-0.88 -1.38,-2.07 -1.38,-3.31c0,-1.25 0.5,-2.44 1.38,-3.32c0.87,-0.88 2.07,-1.37 3.31,-1.37c1.24,0 2.44,0.49 3.31,1.37c0.88,0.88 1.38,2.07 1.38,3.32c0,0.61 -0.12,1.22 -0.36,1.79c-0.23,0.57 -0.58,1.08 -1.02,1.52c-0.43,0.43 -0.95,0.78 -1.52,1.02c-0.56,0.23 -1.17,0.35 -1.79,0.35zM13.125,0c-3.48,0 -6.82,1.383 -9.28,3.844c-2.46,2.462 -3.84,5.796 -3.84,9.286c0,9.84 13.12,24.37 13.12,24.37c0,0 13.12,-14.53 13.12,-24.37c0,-3.49 -1.38,-6.824 -3.84,-9.286c-2.46,-2.461 -5.8,-3.844 -9.28,-3.844z" fill="black"/></svg>