<svg viewBox="0 0 29.7439 29.7496" fill="none" xmlns="http://www.w3.org/2000/svg" xmlns:xlink="http://www.w3.org/1999/xlink" x="0" y="0"><path id="Vector" d="M23.8291,29.7493c-1.29,0 -3.11,-0.469 -5.84,-1.992c-3.32,-1.86 -5.88,-3.576 -9.18,-6.865c-3.18,-3.178 -4.72,-5.235 -6.89,-9.176c-2.45,-4.449 -2.03,-6.781 -1.56,-7.778c0.55,-1.191 1.37,-1.904 2.43,-2.611c0.6,-0.394 1.24,-0.732 1.9,-1.009c0.07,-0.029 0.13,-0.056 0.19,-0.081c0.32,-0.148 0.82,-0.371 1.45,-0.132c0.42,0.158 0.8,0.481 1.39,1.062c1.21,1.19 2.85,3.84 3.46,5.142c0.41,0.877 0.68,1.456 0.68,2.106c0,0.76 -0.38,1.346 -0.84,1.979c-0.09,0.119 -0.18,0.233 -0.26,0.343c-0.51,0.664 -0.62,0.856 -0.55,1.199c0.15,0.688 1.26,2.738 3.07,4.549c1.82,1.811 3.81,2.846 4.5,2.993c0.36,0.076 0.55,-0.039 1.24,-0.562c0.1,-0.076 0.2,-0.153 0.3,-0.231c0.71,-0.526 1.27,-0.899 2.01,-0.899h0.01c0.64,0 1.2,0.28 2.11,0.742c1.2,0.603 3.93,2.231 5.12,3.439c0.59,0.587 0.91,0.961 1.07,1.382c0.24,0.633 0.01,1.129 -0.13,1.461c-0.03,0.055 -0.05,0.115 -0.08,0.182c-0.28,0.663 -0.62,1.298 -1.02,1.898c-0.7,1.056 -1.42,1.874 -2.61,2.429c-0.62,0.29 -1.29,0.437 -1.97,0.43z" fill="black"/></svg>