<svg viewBox="0 0 73.989 73.9987" fill="none" xmlns="http://www.w3.org/2000/svg" xmlns:xlink="http://www.w3.org/1999/xlink" x="0" y="0"><path id="Vector_19" fill-rule="evenodd" clip-rule="evenodd" d="M8.2298,37.0095c-0.01,-15.89 12.87,-28.77 28.76,-28.78c3.23,0 6.44,0.54 9.49,1.61c2.14,0.75 4.49,-0.39 5.23,-2.53c0.75,-2.15 -0.38,-4.49 -2.53,-5.24c-19.28,-6.72 -40.38,3.46 -47.11,22.75c-6.72,19.28 3.46,40.38 22.75,47.1c19.28,6.73 40.38,-3.45 47.1,-22.74c1.83,-5.22 2.45,-10.78 1.84,-16.28c-0.25,-2.25 -2.28,-3.88 -4.54,-3.63c-2.25,0.25 -3.88,2.28 -3.63,4.54c1.76,15.79 -9.62,30.02 -25.41,31.78c-15.79,1.75 -30.02,-9.62 -31.78,-25.41c-0.11,-1.05 -0.17,-2.11 -0.17,-3.17zM68.8498,15.0695c1.5,-1.7 1.34,-4.3 -0.36,-5.8c-1.7,-1.5 -4.3,-1.34 -5.8,0.36l-26.45,29.92l-13.08,-10.66c-1.76,-1.43 -4.35,-1.17 -5.79,0.59c-1.43,1.76 -1.17,4.35 0.59,5.78l16.15,13.15c1.71,1.4 4.21,1.19 5.67,-0.46l29.07,-32.88z" fill="black"/></svg>