<svg viewBox="0 0 34.5 34.5" fill="none" xmlns="http://www.w3.org/2000/svg" xmlns:xlink="http://www.w3.org/1999/xlink" x="0" y="0"><path id="Vector_21" d="M31.817,34.5l-12.075,-12.08c-0.959,0.77 -2.061,1.38 -3.307,1.83c-1.245,0.44 -2.571,0.67 -3.977,0.67c-3.482,0 -6.428,-1.21 -8.839,-3.62c-2.411,-2.41 -3.618,-5.36 -3.619,-8.84c-0.001,-3.48 1.205,-6.43 3.619,-8.84c2.413,-2.41 5.36,-3.62 8.839,-3.62c3.48,0 6.427,1.21 8.842,3.62c2.415,2.41 3.621,5.36 3.617,8.84c0,1.4 -0.224,2.73 -0.671,3.98c-0.447,1.24 -1.054,2.34 -1.821,3.3l12.075,12.08zM12.458,21.08c2.396,0 4.433,-0.83 6.111,-2.51c1.677,-1.68 2.516,-3.71 2.514,-6.11c-0.001,-2.4 -0.839,-4.43 -2.514,-6.11c-1.675,-1.68 -3.712,-2.51 -6.111,-2.52c-2.398,0 -4.434,0.84 -6.108,2.52c-1.674,1.68 -2.513,3.72 -2.517,6.11c-0.003,2.39 0.835,4.43 2.517,6.11c1.681,1.68 3.718,2.52 6.108,2.51z" fill="currentColor"/></svg>