<svg viewBox="0 0 68.9995 69.0004" fill="none" xmlns="http://www.w3.org/2000/svg" xmlns:xlink="http://www.w3.org/1999/xlink" x="0" y="0"><path id="Vector_25" d="M65.864,0.001h-62.728c-1.732,0 -3.136,1.4 -3.136,3.14v62.72c0,1.74 1.404,3.14 3.136,3.14h35.546c1.732,0 3.136,-1.4 3.136,-3.14c0,-1.73 -1.404,-3.13 -3.136,-3.13h-32.409v-27.19h14.636v11.5c0,1.74 1.404,3.14 3.136,3.14c1.732,0 3.136,-1.4 3.136,-3.14v-29.27c0,-1.73 -1.404,-3.13 -3.136,-3.13c-1.732,0 -3.136,1.4 -3.136,3.13v11.5h-14.636v-23h31.364v15.69c0,1.73 1.404,3.13 3.136,3.13h14.636c1.732,0 3.136,-1.4 3.136,-3.13c0,-1.74 -1.404,-3.14 -3.136,-3.14h-11.5v-12.55h18.818v37.64h-21.954c-1.732,0 -3.136,1.4 -3.136,3.14c0,1.73 1.404,3.13 3.136,3.13h21.954v12.55h-5.227c-1.732,0 -3.137,1.4 -3.137,3.13c0,1.74 1.405,3.14 3.137,3.14h8.363c1.732,0 3.136,-1.4 3.136,-3.14v-62.72c0,-1.74 -1.404,-3.14 -3.136,-3.14z" fill="black"/></svg>