<svg viewBox="0 0 28 28" fill="none" xmlns="http://www.w3.org/2000/svg" xmlns:xlink="http://www.w3.org/1999/xlink" x="0" y="0"><defs><clipPath id="clip2_154_13">
<rect width="28" height="28" fill="white" transform="translate(0, 0)"/>
</clipPath></defs><g id="qlementine-icons:user-24_2" clip-path="url(#clip2_154_13)">
<path id="Vector_3" d="M18.667,11.67c0,2.57 -2.089,4.66 -4.667,4.66c-2.578,0 -4.667,-2.09 -4.667,-4.66c0,-2.58 2.089,-4.67 4.667,-4.67c2.578,0 4.667,2.09 4.667,4.67z" fill="currentColor"/>
<path id="Vector_4" fill-rule="evenodd" clip-rule="evenodd" d="M14,28c7.735,0 14,-6.27 14,-14c0,-7.74 -6.265,-14 -14,-14c-7.735,0 -14,6.26 -14,14c0,7.73 6.265,14 14,14zM21.315,24.55c3.337,-2.32 5.518,-6.17 5.518,-10.55c0,-7.09 -5.74,-12.83 -12.833,-12.83c-7.093,0 -12.833,5.74 -12.833,12.83c0,4.38 2.181,8.23 5.518,10.55c0.822,-1.54 3.477,-5.88 7.315,-5.88c3.838,0 6.487,4.34 7.315,5.88z" fill="currentColor"/>
</g></svg>