<svg viewBox="0 0 73.5991 69" fill="none" xmlns="http://www.w3.org/2000/svg" xmlns:xlink="http://www.w3.org/1999/xlink" x="0" y="0"><path id="Vector_30" d="M21.37,37.47c0.9,-0.89 2.36,-0.89 3.26,0l1.82,1.83l3.65,-3.65l-8.05,-8.05h-3.65c-9.03,0 -13.8,-5.57 -13.8,-16.1c0,-0.8 0.41,-1.54 1.09,-1.95c0.68,-0.42 1.53,-0.46 2.24,-0.11l7.71,3.86l2.26,-2.25l-3.86,-7.72c-0.36,-0.71 -0.32,-1.56 0.1,-2.24c0.42,-0.68 1.16,-1.09 1.96,-1.09c10.53,0 16.1,4.77 16.1,13.8v3.65l8.05,8.05l12.85,-12.85l-1.83,-1.82c-0.5,-0.51 -0.74,-1.21 -0.65,-1.91c0.08,-0.7 0.49,-1.33 1.1,-1.69l11.5,-6.9c0.9,-0.55 2.06,-0.4 2.81,0.34l2.3,2.3c0.74,0.75 0.89,1.91 0.34,2.81l-6.9,11.5c-0.36,0.61 -0.99,1.02 -1.69,1.1c-0.09,0.02 -0.19,0.02 -0.28,0.02c-0.61,0 -1.19,-0.24 -1.63,-0.67l-1.82,-1.83l-12.85,12.85l27.13,27.12c0.25,0.26 0.44,0.56 0.55,0.9l2.3,6.9c0.28,0.83 0.06,1.74 -0.55,2.36l-2.3,2.3c-0.44,0.43 -1.03,0.67 -1.63,0.67c-0.24,0 -0.49,-0.04 -0.73,-0.12l-6.9,-2.3c-0.34,-0.11 -0.64,-0.3 -0.9,-0.55l-27.12,-27.13l-3.65,3.65l1.82,1.82c0.9,0.9 0.9,2.36 0,3.26l-20.7,20.7c-0.44,0.45 -1.03,0.67 -1.62,0.67c-0.59,0 -1.18,-0.22 -1.63,-0.67l-6.9,-6.9c-0.9,-0.9 -0.9,-2.36 0,-3.26l20.7,-20.7zM59.34,12.39l4.1,-6.83l-6.83,4.1l2.73,2.73zM63.34,62.39l5.04,1.68l0.29,-0.29l-1.68,-5.04l-38.72,-38.71c-0.43,-0.43 -0.67,-1.02 -0.67,-1.63v-4.6c0,-3.89 -1,-7.86 -7.64,-8.92l2.8,5.59c0.44,0.89 0.27,1.96 -0.43,2.66l-4.6,4.6c-0.7,0.7 -1.78,0.87 -2.66,0.43l-5.6,-2.8c1.07,6.64 5.04,7.64 8.93,7.64h4.6c0.61,0 1.19,0.24 1.63,0.68zM9.2,63.45l17.45,-17.45l-3.65,-3.65l-17.45,17.45z" fill="black"/></svg>